# Blender 5.0.0
# www.blender.org
mtllib pawn.mtl
o pawn
v 0.000000 1.855719 -0.472198
v -0.180702 1.855719 -0.436254
v -0.333895 1.855719 -0.333895
v -0.436254 1.855719 -0.180702
v -0.472198 1.855719 0.000000
v -0.436254 1.855719 0.180702
v -0.333895 1.855719 0.333895
v -0.180702 1.855719 0.436254
v 0.000000 1.855719 0.472198
v 0.180703 1.855719 0.436254
v 0.333895 1.855719 0.333895
v 0.436254 1.855719 0.180702
v 0.472198 1.855719 0.000000
v 0.436254 1.855719 -0.180702
v 0.333895 1.855719 -0.333895
v 0.180703 1.855719 -0.436254
v 0.000000 2.081120 -0.547308
v -0.209446 2.081120 -0.505647
v -0.387005 2.081120 -0.387005
v -0.505647 2.081120 -0.209446
v -0.547308 2.081120 0.000000
v -0.505647 2.081120 0.209446
v -0.387005 2.081120 0.387005
v -0.209446 2.081120 0.505647
v 0.000000 2.081120 0.547308
v 0.209446 2.081120 0.505647
v 0.387005 2.081120 0.387005
v 0.505647 2.081120 0.209446
v 0.547308 2.081120 0.000000
v 0.505647 2.081120 -0.209446
v 0.387005 2.081120 -0.387005
v 0.209446 2.081120 -0.505647
v 0.000000 2.317791 -0.547308
v -0.209446 2.317791 -0.505647
v -0.387005 2.317791 -0.387005
v -0.505647 2.317791 -0.209446
v -0.547308 2.317791 0.000000
v -0.505647 2.317791 0.209446
v -0.387005 2.317791 0.387005
v -0.209446 2.317791 0.505647
v 0.000000 2.317791 0.547308
v 0.209446 2.317791 0.505647
v 0.387005 2.317791 0.387005
v 0.505647 2.317791 0.209446
v 0.547308 2.317791 0.000000
v 0.505647 2.317791 -0.209446
v 0.387005 2.317791 -0.387005
v 0.209446 2.317791 -0.505647
v 0.000000 2.528659 -0.459562
v -0.175867 2.528659 -0.424580
v -0.324959 2.528659 -0.324959
v -0.424580 2.528659 -0.175867
v -0.459562 2.528659 0.000000
v -0.424580 2.528659 0.175867
v -0.324959 2.528659 0.324959
v -0.175867 2.528659 0.424580
v 0.000000 2.528659 0.459562
v 0.175867 2.528659 0.424580
v 0.324959 2.528659 0.324959
v 0.424580 2.528659 0.175867
v 0.459562 2.528659 0.000000
v 0.424580 2.528659 -0.175867
v 0.324959 2.528659 -0.324959
v 0.175867 2.528659 -0.424580
v 0.000000 2.651129 -0.335148
v -0.128255 2.651129 -0.309636
v -0.236985 2.651129 -0.236985
v -0.309636 2.651129 -0.128256
v -0.335148 2.651129 0.000000
v -0.309636 2.651129 0.128256
v -0.236985 2.651129 0.236985
v -0.128255 2.651129 0.309636
v 0.000000 2.651129 0.335148
v 0.128256 2.651129 0.309636
v 0.236985 2.651129 0.236985
v 0.309636 2.651129 0.128256
v 0.335148 2.651129 0.000000
v 0.309636 2.651129 -0.128256
v 0.236985 2.651129 -0.236985
v 0.128256 2.651129 -0.309636
v 0.113113 2.739739 -0.118609
v 0.000000 2.747638 -0.129859
v -0.113112 2.739739 -0.118609
v 0.122432 2.749250 0.000000
v 0.000000 2.764369 0.000000
v -0.122432 2.749250 0.000000
v 0.113113 2.739739 0.118609
v 0.000000 2.747638 0.129859
v -0.113112 2.739739 0.118609
v -0.524297 0.000000 -0.500000
v -0.574025 0.000000 -0.000000
v -0.524297 0.000000 0.500000
v 0.000000 0.000000 -0.541196
v 0.000000 0.000000 -0.000000
v 0.000000 0.000000 0.541196
v 0.524297 0.000000 -0.500000
v 0.574025 0.000000 -0.000000
v 0.524297 0.000000 0.500000
v 0.000000 0.297749 -0.553280
v 0.000000 0.326436 -0.527194
v -0.201749 0.326436 -0.487064
v -0.211731 0.297749 -0.511164
v -0.372783 0.326436 -0.372783
v -0.391228 0.297749 -0.391228
v -0.487064 0.326436 -0.201749
v -0.511164 0.297749 -0.211731
v -0.527194 0.326436 0.000000
v -0.553280 0.297749 0.000000
v -0.487064 0.326436 0.201749
v -0.511164 0.297749 0.211731
v -0.372783 0.326436 0.372783
v -0.391228 0.297749 0.391228
v -0.201749 0.326436 0.487064
v -0.211731 0.297749 0.511164
v 0.000000 0.326436 0.527194
v 0.000000 0.297749 0.553280
v 0.201749 0.326436 0.487064
v 0.211731 0.297749 0.511164
v 0.372783 0.326436 0.372783
v 0.391228 0.297749 0.391228
v 0.487064 0.326436 0.201749
v 0.511164 0.297749 0.211731
v 0.527194 0.326436 0.000000
v 0.553280 0.297749 0.000000
v 0.487064 0.326436 -0.201749
v 0.511164 0.297749 -0.211731
v 0.372783 0.326436 -0.372783
v 0.391228 0.297749 -0.391228
v 0.201749 0.326436 -0.487064
v 0.211731 0.297749 -0.511164
v 0.000000 0.145697 -1.000000
v 0.000000 0.169700 -0.984921
v -0.376913 0.169700 -0.909948
v -0.382683 0.145697 -0.923880
v -0.696444 0.169700 -0.696444
v -0.707107 0.145697 -0.707107
v -0.909948 0.169700 -0.376913
v -0.923880 0.145697 -0.382683
v -0.984921 0.169700 0.000000
v -1.000000 0.145697 0.000000
v -0.909948 0.169700 0.376913
v -0.923880 0.145697 0.382683
v -0.696444 0.169700 0.696444
v -0.707107 0.145697 0.707107
v -0.376913 0.169700 0.909948
v -0.382683 0.145697 0.923880
v 0.000000 0.169700 0.984921
v 0.000000 0.145697 1.000000
v 0.376913 0.169700 0.909948
v 0.382683 0.145697 0.923880
v 0.696444 0.169700 0.696444
v 0.707107 0.145697 0.707107
v 0.909948 0.169700 0.376913
v 0.923880 0.145697 0.382683
v 0.984921 0.169700 0.000000
v 1.000000 0.145697 0.000000
v 0.909948 0.169700 -0.376913
v 0.923880 0.145697 -0.382683
v 0.696444 0.169700 -0.696444
v 0.707107 0.145697 -0.707107
v 0.376913 0.169700 -0.909948
v 0.382683 0.145697 -0.923880
v 0.000000 1.641171 -0.265370
v 0.000000 1.752884 -0.330053
v -0.126306 1.752884 -0.304929
v -0.101553 1.641171 -0.245170
v -0.233382 1.752884 -0.233383
v -0.187645 1.641171 -0.187645
v -0.304929 1.752884 -0.126306
v -0.245170 1.641171 -0.101553
v -0.330053 1.752884 0.000000
v -0.265370 1.641171 0.000000
v -0.304929 1.752884 0.126306
v -0.245170 1.641171 0.101553
v -0.233382 1.752884 0.233383
v -0.187645 1.641171 0.187645
v -0.126306 1.752884 0.304929
v -0.101553 1.641171 0.245170
v 0.000000 1.752884 0.330053
v 0.000000 1.641171 0.265370
v 0.126306 1.752884 0.304929
v 0.101553 1.641171 0.245170
v 0.233383 1.752884 0.233383
v 0.187645 1.641171 0.187645
v 0.304929 1.752884 0.126306
v 0.245170 1.641171 0.101553
v 0.330053 1.752884 0.000000
v 0.265370 1.641171 0.000000
v 0.304929 1.752884 -0.126306
v 0.245170 1.641171 -0.101553
v 0.233383 1.752884 -0.233383
v 0.187645 1.641171 -0.187645
v 0.126306 1.752884 -0.304929
v 0.101553 1.641171 -0.245170
v 0.000000 0.570433 -0.290150
v 0.000000 1.443391 -0.237645
v 0.000000 1.091681 -0.215364
v -0.090943 1.443391 -0.219555
v -0.111035 0.570433 -0.268063
v -0.082416 1.091681 -0.198971
v -0.168040 1.443391 -0.168040
v -0.205167 0.570433 -0.205167
v -0.152286 1.091681 -0.152286
v -0.219555 1.443391 -0.090943
v -0.268063 0.570433 -0.111035
v -0.198971 1.091681 -0.082416
v -0.237645 1.443391 0.000000
v -0.290150 0.570433 0.000000
v -0.215364 1.091681 0.000000
v -0.219555 1.443391 0.090943
v -0.268063 0.570433 0.111035
v -0.198971 1.091681 0.082416
v -0.168040 1.443391 0.168040
v -0.205167 0.570433 0.205167
v -0.152286 1.091681 0.152286
v -0.090943 1.443391 0.219555
v -0.111035 0.570433 0.268063
v -0.082416 1.091681 0.198971
v 0.000000 1.443391 0.237645
v 0.000000 0.570433 0.290150
v 0.000000 1.091681 0.215364
v 0.090943 1.443391 0.219555
v 0.111035 0.570433 0.268063
v 0.082416 1.091681 0.198971
v 0.168040 1.443391 0.168040
v 0.205167 0.570433 0.205167
v 0.152286 1.091681 0.152286
v 0.219555 1.443391 0.090943
v 0.268063 0.570433 0.111035
v 0.198971 1.091681 0.082416
v 0.237645 1.443391 0.000000
v 0.290150 0.570433 0.000000
v 0.215364 1.091681 0.000000
v 0.219555 1.443391 -0.090943
v 0.268063 0.570433 -0.111035
v 0.198971 1.091681 -0.082416
v 0.168040 1.443391 -0.168040
v 0.205167 0.570433 -0.205167
v 0.152286 1.091681 -0.152286
v 0.090943 1.443391 -0.219555
v 0.111035 0.570433 -0.268063
v 0.082416 1.091681 -0.198971
v -0.107686 0.610373 -0.259978
v 0.000000 0.610373 -0.281398
v -0.198978 0.610373 -0.198979
v -0.259978 0.610373 -0.107686
v -0.281398 0.610373 0.000000
v -0.259978 0.610373 0.107686
v -0.198978 0.610373 0.198979
v -0.107686 0.610373 0.259978
v 0.000000 0.610373 0.281398
v 0.107686 0.610373 0.259978
v 0.198979 0.610373 0.198979
v 0.259978 0.610373 0.107686
v 0.281398 0.610373 0.000000
v 0.259978 0.610373 -0.107686
v 0.198979 0.610373 -0.198979
v 0.107686 0.610373 -0.259978
v 0.000000 0.000000 -0.981208
v 0.000000 0.016261 -1.000000
v -0.382683 0.016261 -0.923880
v -0.389440 0.000000 -0.903655
v -0.707107 0.016261 -0.707107
v -0.697077 0.000000 -0.697951
v -0.923880 0.016261 -0.382683
v -0.903961 0.000000 -0.388531
v -1.000000 0.016261 0.000000
v -0.981329 0.000000 -0.000000
v -0.923880 0.016261 0.382683
v -0.903961 0.000000 0.388531
v -0.707107 0.016261 0.707107
v -0.697077 0.000000 0.697951
v -0.382683 0.016261 0.923880
v -0.389440 0.000000 0.903655
v 0.000000 0.016261 1.000000
v 0.000000 0.000000 0.981208
v 0.382683 0.016261 0.923880
v 0.389440 0.000000 0.903655
v 0.707107 0.016261 0.707107
v 0.697077 0.000000 0.697951
v 0.923880 0.016261 0.382683
v 0.903961 0.000000 0.388531
v 1.000000 0.016261 0.000000
v 0.981329 0.000000 -0.000000
v 0.923880 0.016261 -0.382683
v 0.903961 0.000000 -0.388531
v 0.707107 0.016261 -0.707107
v 0.697077 0.000000 -0.697951
v 0.382683 0.016261 -0.923880
v 0.389440 0.000000 -0.903655
vn -0.0000 -0.5741 -0.8188
vn -0.3133 -0.5741 -0.7565
vn -0.5790 -0.5741 -0.5790
vn -0.7565 -0.5741 -0.3133
vn -0.8188 -0.5741 -0.0000
vn -0.7565 -0.5741 0.3133
vn -0.5790 -0.5741 0.5790
vn -0.3133 -0.5741 0.7565
vn -0.0000 -0.5741 0.8188
vn 0.3133 -0.5741 0.7565
vn 0.5790 -0.5741 0.5790
vn 0.7565 -0.5741 0.3133
vn 0.8188 -0.5741 -0.0000
vn 0.7565 -0.5741 -0.3133
vn 0.5790 -0.5741 -0.5790
vn 0.3133 -0.5741 -0.7565
vn -0.0000 -0.1571 -0.9876
vn -0.3779 -0.1571 -0.9124
vn -0.6983 -0.1571 -0.6983
vn -0.9124 -0.1571 -0.3779
vn -0.9876 -0.1571 -0.0000
vn -0.9124 -0.1571 0.3779
vn -0.6983 -0.1571 0.6983
vn -0.3779 -0.1571 0.9124
vn -0.0000 -0.1571 0.9876
vn 0.3779 -0.1571 0.9124
vn 0.6983 -0.1571 0.6983
vn 0.9124 -0.1571 0.3779
vn 0.9876 -0.1571 -0.0000
vn 0.9124 -0.1571 -0.3779
vn 0.6983 -0.1571 -0.6983
vn 0.3779 -0.1571 -0.9124
vn -0.0000 0.1914 -0.9815
vn -0.3756 0.1914 -0.9068
vn -0.6940 0.1914 -0.6940
vn -0.9068 0.1914 -0.3756
vn -0.9815 0.1914 -0.0000
vn -0.9068 0.1914 0.3756
vn -0.6940 0.1914 0.6940
vn -0.3756 0.1914 0.9068
vn -0.0000 0.1914 0.9815
vn 0.3756 0.1914 0.9068
vn 0.6940 0.1914 0.6940
vn 0.9068 0.1914 0.3756
vn 0.9815 0.1914 -0.0000
vn 0.9068 0.1914 -0.3756
vn 0.6940 0.1914 -0.6940
vn 0.3756 0.1914 -0.9068
vn -0.0000 0.5484 -0.8362
vn -0.3200 0.5484 -0.7726
vn -0.5913 0.5484 -0.5913
vn -0.7726 0.5484 -0.3200
vn -0.8362 0.5484 -0.0000
vn -0.7726 0.5484 0.3200
vn -0.5913 0.5484 0.5913
vn -0.3200 0.5484 0.7726
vn -0.0000 0.5484 0.8362
vn 0.3200 0.5484 0.7726
vn 0.5913 0.5484 0.5913
vn 0.7726 0.5484 0.3200
vn 0.8362 0.5484 -0.0000
vn 0.7726 0.5484 -0.3200
vn 0.5913 0.5484 -0.5913
vn 0.3200 0.5484 -0.7726
vn -0.0000 0.8122 -0.5834
vn -0.2352 0.8102 -0.5369
vn -0.4241 0.8002 -0.4241
vn -0.5356 0.8114 -0.2341
vn -0.5806 0.8142 -0.0000
vn -0.5356 0.8114 0.2341
vn -0.4241 0.8002 0.4241
vn -0.2352 0.8102 0.5369
vn -0.0000 0.8122 0.5834
vn 0.2352 0.8102 0.5369
vn 0.4241 0.8002 0.4241
vn 0.5356 0.8114 0.2341
vn 0.5806 0.8142 -0.0000
vn 0.5356 0.8114 -0.2341
vn 0.4241 0.8002 -0.4241
vn 0.2352 0.8102 -0.5369
vn 0.2298 0.9448 -0.2336
vn -0.0000 0.9612 -0.2757
vn -0.2298 0.9448 -0.2336
vn 0.2667 0.9638 -0.0000
vn -0.0000 1.0000 -0.0000
vn -0.2667 0.9638 -0.0000
vn 0.2298 0.9448 0.2336
vn -0.0000 0.9612 0.2757
vn -0.2298 0.9448 0.2336
vn -0.0000 -1.0000 -0.0000
vn -0.0000 0.8621 -0.5068
vn -0.0000 0.6839 -0.7296
vn -0.2792 0.6839 -0.6741
vn -0.1939 0.8621 -0.4682
vn -0.5159 0.6839 -0.5159
vn -0.3584 0.8621 -0.3584
vn -0.6741 0.6839 -0.2792
vn -0.4682 0.8621 -0.1939
vn -0.7296 0.6839 -0.0000
vn -0.5068 0.8621 -0.0000
vn -0.6741 0.6839 0.2792
vn -0.4682 0.8621 0.1939
vn -0.5159 0.6839 0.5159
vn -0.3584 0.8621 0.3584
vn -0.2792 0.6839 0.6741
vn -0.1939 0.8621 0.4682
vn -0.0000 0.6839 0.7296
vn -0.0000 0.8621 0.5068
vn 0.2792 0.6839 0.6741
vn 0.1939 0.8621 0.4682
vn 0.5159 0.6839 0.5159
vn 0.3584 0.8621 0.3584
vn 0.6741 0.6839 0.2792
vn 0.4682 0.8621 0.1939
vn 0.7296 0.6839 -0.0000
vn 0.5068 0.8621 -0.0000
vn 0.6741 0.6839 -0.2792
vn 0.4682 0.8621 -0.1939
vn 0.5159 0.6839 -0.5159
vn 0.3584 0.8621 -0.3584
vn 0.2792 0.6839 -0.6741
vn 0.1939 0.8621 -0.4682
vn -0.0000 0.2681 -0.9634
vn -0.0000 0.7758 -0.6310
vn -0.2415 0.7758 -0.5830
vn -0.3687 0.2681 -0.8901
vn -0.4462 0.7758 -0.4462
vn -0.6812 0.2681 -0.6812
vn -0.5830 0.7758 -0.2415
vn -0.8901 0.2681 -0.3687
vn -0.6310 0.7758 -0.0000
vn -0.9634 0.2681 -0.0000
vn -0.5830 0.7758 0.2415
vn -0.8901 0.2681 0.3687
vn -0.4462 0.7758 0.4462
vn -0.6812 0.2681 0.6812
vn -0.2415 0.7758 0.5830
vn -0.3687 0.2681 0.8901
vn -0.0000 0.7758 0.6310
vn -0.0000 0.2681 0.9634
vn 0.2415 0.7758 0.5830
vn 0.3687 0.2681 0.8901
vn 0.4462 0.7758 0.4462
vn 0.6812 0.2681 0.6812
vn 0.5830 0.7758 0.2415
vn 0.8901 0.2681 0.3687
vn 0.6310 0.7758 -0.0000
vn 0.9634 0.2681 -0.0000
vn 0.5830 0.7758 -0.2415
vn 0.8901 0.2681 -0.3687
vn 0.4462 0.7758 -0.4462
vn 0.6812 0.2681 -0.6812
vn 0.2415 0.7758 -0.5830
vn 0.3687 0.2681 -0.8901
vn -0.0000 -0.3336 -0.9427
vn -0.0000 -0.6835 -0.7299
vn -0.2793 -0.6835 -0.6744
vn -0.3608 -0.3336 -0.8710
vn -0.5161 -0.6835 -0.5161
vn -0.6666 -0.3336 -0.6666
vn -0.6744 -0.6835 -0.2793
vn -0.8710 -0.3336 -0.3608
vn -0.7299 -0.6835 -0.0000
vn -0.9427 -0.3336 -0.0000
vn -0.6744 -0.6835 0.2793
vn -0.8710 -0.3336 0.3608
vn -0.5161 -0.6835 0.5161
vn -0.6666 -0.3336 0.6666
vn -0.2793 -0.6835 0.6744
vn -0.3608 -0.3336 0.8710
vn -0.0000 -0.6835 0.7299
vn -0.0000 -0.3336 0.9427
vn 0.2793 -0.6835 0.6744
vn 0.3608 -0.3336 0.8710
vn 0.5161 -0.6835 0.5161
vn 0.6666 -0.3336 0.6666
vn 0.6744 -0.6835 0.2793
vn 0.8710 -0.3336 0.3608
vn 0.7299 -0.6835 -0.0000
vn 0.9427 -0.3336 -0.0000
vn 0.6744 -0.6835 -0.2793
vn 0.8710 -0.3336 -0.3608
vn 0.5161 -0.6835 -0.5161
vn 0.6666 -0.3336 -0.6666
vn 0.2793 -0.6835 -0.6744
vn 0.3608 -0.3336 -0.8710
vn -0.0000 0.4884 -0.8726
vn -0.0000 -0.1016 -0.9948
vn -0.0000 0.0370 -0.9993
vn -0.3807 -0.1016 -0.9191
vn -0.3339 0.4884 -0.8062
vn -0.3824 0.0370 -0.9232
vn -0.7034 -0.1016 -0.7034
vn -0.6171 0.4884 -0.6171
vn -0.7066 0.0370 -0.7066
vn -0.9191 -0.1016 -0.3807
vn -0.8062 0.4884 -0.3339
vn -0.9232 0.0370 -0.3824
vn -0.9948 -0.1016 -0.0000
vn -0.8726 0.4884 -0.0000
vn -0.9993 0.0370 -0.0000
vn -0.9191 -0.1016 0.3807
vn -0.8062 0.4884 0.3339
vn -0.9232 0.0370 0.3824
vn -0.7034 -0.1016 0.7034
vn -0.6171 0.4884 0.6171
vn -0.7066 0.0370 0.7066
vn -0.3807 -0.1016 0.9191
vn -0.3339 0.4884 0.8062
vn -0.3824 0.0370 0.9232
vn -0.0000 -0.1016 0.9948
vn -0.0000 0.4884 0.8726
vn -0.0000 0.0370 0.9993
vn 0.3807 -0.1016 0.9191
vn 0.3339 0.4884 0.8062
vn 0.3824 0.0370 0.9232
vn 0.7034 -0.1016 0.7034
vn 0.6171 0.4884 0.6171
vn 0.7066 0.0370 0.7066
vn 0.9191 -0.1016 0.3807
vn 0.8062 0.4884 0.3339
vn 0.9232 0.0370 0.3824
vn 0.9948 -0.1016 -0.0000
vn 0.8726 0.4884 -0.0000
vn 0.9993 0.0370 -0.0000
vn 0.9191 -0.1016 -0.3807
vn 0.8062 0.4884 -0.3339
vn 0.9232 0.0370 -0.3824
vn 0.7034 -0.1016 -0.7034
vn 0.6171 0.4884 -0.6171
vn 0.7066 0.0370 -0.7066
vn 0.3807 -0.1016 -0.9191
vn 0.3339 0.4884 -0.8062
vn 0.3824 0.0370 -0.9232
vn -0.3767 0.1760 -0.9095
vn -0.0000 0.1760 -0.9844
vn -0.6961 0.1760 -0.6961
vn -0.9095 0.1760 -0.3767
vn -0.9844 0.1760 -0.0000
vn -0.9095 0.1760 0.3767
vn -0.6961 0.1760 0.6961
vn -0.3767 0.1760 0.9095
vn -0.0000 0.1760 0.9844
vn 0.3767 0.1760 0.9095
vn 0.6961 0.1760 0.6961
vn 0.9095 0.1760 0.3767
vn 0.9844 0.1760 -0.0000
vn 0.9095 0.1760 -0.3767
vn 0.6961 0.1760 -0.6961
vn 0.3767 0.1760 -0.9095
vn -0.0000 -0.9226 -0.3857
vn -0.0000 -0.3979 -0.9174
vn -0.3344 -0.3754 -0.8644
vn -0.2001 -0.8971 -0.3938
vn -0.6692 -0.3269 -0.6674
vn -0.3285 -0.8845 -0.3312
vn -0.8642 -0.3750 -0.3356
vn -0.3919 -0.8987 -0.1970
vn -0.9180 -0.3965 -0.0000
vn -0.3873 -0.9219 -0.0000
vn -0.8642 -0.3750 0.3356
vn -0.3919 -0.8987 0.1970
vn -0.6692 -0.3269 0.6674
vn -0.3285 -0.8845 0.3312
vn -0.3344 -0.3754 0.8644
vn -0.2001 -0.8971 0.3938
vn -0.0000 -0.3979 0.9174
vn -0.0000 -0.9226 0.3857
vn 0.3344 -0.3754 0.8644
vn 0.2001 -0.8971 0.3938
vn 0.6692 -0.3269 0.6674
vn 0.3285 -0.8845 0.3312
vn 0.8642 -0.3750 0.3356
vn 0.3919 -0.8987 0.1970
vn 0.9180 -0.3965 -0.0000
vn 0.3873 -0.9219 -0.0000
vn 0.8642 -0.3750 -0.3356
vn 0.3919 -0.8987 -0.1970
vn 0.6692 -0.3269 -0.6674
vn 0.3285 -0.8845 -0.3312
vn 0.3344 -0.3754 -0.8644
vn 0.2001 -0.8971 -0.3938
vt 0.000000 0.000000
s 1
f 3/1/3 19/1/19 18/1/18 2/1/2
f 11/1/11 27/1/27 26/1/26 10/1/10
f 4/1/4 20/1/20 19/1/19 3/1/3
f 12/1/12 28/1/28 27/1/27 11/1/11
f 5/1/5 21/1/21 20/1/20 4/1/4
f 13/1/13 29/1/29 28/1/28 12/1/12
f 6/1/6 22/1/22 21/1/21 5/1/5
f 14/1/14 30/1/30 29/1/29 13/1/13
f 7/1/7 23/1/23 22/1/22 6/1/6
f 15/1/15 31/1/31 30/1/30 14/1/14
f 8/1/8 24/1/24 23/1/23 7/1/7
f 16/1/16 32/1/32 31/1/31 15/1/15
f 9/1/9 25/1/25 24/1/24 8/1/8
f 2/1/2 18/1/18 17/1/17 1/1/1
f 1/1/1 17/1/17 32/1/32 16/1/16
f 10/1/10 26/1/26 25/1/25 9/1/9
f 24/1/24 40/1/40 39/1/39 23/1/23
f 32/1/32 48/1/48 47/1/47 31/1/31
f 25/1/25 41/1/41 40/1/40 24/1/24
f 18/1/18 34/1/34 33/1/33 17/1/17
f 17/1/17 33/1/33 48/1/48 32/1/32
f 26/1/26 42/1/42 41/1/41 25/1/25
f 19/1/19 35/1/35 34/1/34 18/1/18
f 27/1/27 43/1/43 42/1/42 26/1/26
f 20/1/20 36/1/36 35/1/35 19/1/19
f 28/1/28 44/1/44 43/1/43 27/1/27
f 21/1/21 37/1/37 36/1/36 20/1/20
f 29/1/29 45/1/45 44/1/44 28/1/28
f 22/1/22 38/1/38 37/1/37 21/1/21
f 30/1/30 46/1/46 45/1/45 29/1/29
f 23/1/23 39/1/39 38/1/38 22/1/22
f 31/1/31 47/1/47 46/1/46 30/1/30
f 45/1/45 61/1/61 60/1/60 44/1/44
f 38/1/38 54/1/54 53/1/53 37/1/37
f 46/1/46 62/1/62 61/1/61 45/1/45
f 39/1/39 55/1/55 54/1/54 38/1/38
f 47/1/47 63/1/63 62/1/62 46/1/46
f 40/1/40 56/1/56 55/1/55 39/1/39
f 48/1/48 64/1/64 63/1/63 47/1/47
f 41/1/41 57/1/57 56/1/56 40/1/40
f 34/1/34 50/1/50 49/1/49 33/1/33
f 33/1/33 49/1/49 64/1/64 48/1/48
f 42/1/42 58/1/58 57/1/57 41/1/41
f 35/1/35 51/1/51 50/1/50 34/1/34
f 43/1/43 59/1/59 58/1/58 42/1/42
f 36/1/36 52/1/52 51/1/51 35/1/35
f 44/1/44 60/1/60 59/1/59 43/1/43
f 37/1/37 53/1/53 52/1/52 36/1/36
f 51/1/51 67/1/67 66/1/66 50/1/50
f 59/1/59 75/1/75 74/1/74 58/1/58
f 52/1/52 68/1/68 67/1/67 51/1/51
f 60/1/60 76/1/76 75/1/75 59/1/59
f 53/1/53 69/1/69 68/1/68 52/1/52
f 61/1/61 77/1/77 76/1/76 60/1/60
f 54/1/54 70/1/70 69/1/69 53/1/53
f 62/1/62 78/1/78 77/1/77 61/1/61
f 55/1/55 71/1/71 70/1/70 54/1/54
f 63/1/63 79/1/79 78/1/78 62/1/62
f 56/1/56 72/1/72 71/1/71 55/1/55
f 64/1/64 80/1/80 79/1/79 63/1/63
f 57/1/57 73/1/73 72/1/72 56/1/56
f 50/1/50 66/1/66 65/1/65 49/1/49
f 49/1/49 65/1/65 80/1/80 64/1/64
f 58/1/58 74/1/74 73/1/73 57/1/57
f 79/1/79 80/1/80 81/1/81 78/1/78
f 78/1/78 81/1/81 84/1/84 77/1/77
f 77/1/77 84/1/84 87/1/87 76/1/76
f 76/1/76 87/1/87 74/1/74 75/1/75
f 80/1/80 65/1/65 82/1/82 81/1/81
f 81/1/81 82/1/82 85/1/85 84/1/84
f 84/1/84 85/1/85 88/1/88 87/1/87
f 87/1/87 88/1/88 73/1/73 74/1/74
f 65/1/65 66/1/66 83/1/83 82/1/82
f 82/1/82 83/1/83 86/1/86 85/1/85
f 85/1/85 86/1/86 89/1/89 88/1/88
f 88/1/88 89/1/89 72/1/72 73/1/73
f 66/1/66 67/1/67 68/1/68 83/1/83
f 83/1/83 68/1/68 69/1/69 86/1/86
f 86/1/86 69/1/69 70/1/70 89/1/89
f 89/1/89 70/1/70 71/1/71 72/1/72
f 91/1/90 90/1/90 93/1/90 94/1/90
f 94/1/90 93/1/90 96/1/90 97/1/90
f 92/1/90 91/1/90 94/1/90 95/1/90
f 95/1/90 94/1/90 97/1/90 98/1/90
f 102/1/94 101/1/93 100/1/92 99/1/91
f 104/1/96 103/1/95 101/1/93 102/1/94
f 106/1/98 105/1/97 103/1/95 104/1/96
f 108/1/100 107/1/99 105/1/97 106/1/98
f 110/1/102 109/1/101 107/1/99 108/1/100
f 112/1/104 111/1/103 109/1/101 110/1/102
f 114/1/106 113/1/105 111/1/103 112/1/104
f 116/1/108 115/1/107 113/1/105 114/1/106
f 118/1/110 117/1/109 115/1/107 116/1/108
f 120/1/112 119/1/111 117/1/109 118/1/110
f 122/1/114 121/1/113 119/1/111 120/1/112
f 124/1/116 123/1/115 121/1/113 122/1/114
f 126/1/118 125/1/117 123/1/115 124/1/116
f 128/1/120 127/1/119 125/1/117 126/1/118
f 130/1/122 129/1/121 127/1/119 128/1/120
f 99/1/91 100/1/92 129/1/121 130/1/122
f 134/1/126 133/1/125 132/1/124 131/1/123
f 136/1/128 135/1/127 133/1/125 134/1/126
f 138/1/130 137/1/129 135/1/127 136/1/128
f 140/1/132 139/1/131 137/1/129 138/1/130
f 142/1/134 141/1/133 139/1/131 140/1/132
f 144/1/136 143/1/135 141/1/133 142/1/134
f 146/1/138 145/1/137 143/1/135 144/1/136
f 148/1/140 147/1/139 145/1/137 146/1/138
f 150/1/142 149/1/141 147/1/139 148/1/140
f 152/1/144 151/1/143 149/1/141 150/1/142
f 154/1/146 153/1/145 151/1/143 152/1/144
f 156/1/148 155/1/147 153/1/145 154/1/146
f 158/1/150 157/1/149 155/1/147 156/1/148
f 160/1/152 159/1/151 157/1/149 158/1/150
f 162/1/154 161/1/153 159/1/151 160/1/152
f 131/1/123 132/1/124 161/1/153 162/1/154
f 133/1/125 102/1/94 99/1/91 132/1/124
f 132/1/124 99/1/91 130/1/122 161/1/153
f 135/1/127 104/1/96 102/1/94 133/1/125
f 137/1/129 106/1/98 104/1/96 135/1/127
f 139/1/131 108/1/100 106/1/98 137/1/129
f 141/1/133 110/1/102 108/1/100 139/1/131
f 143/1/135 112/1/104 110/1/102 141/1/133
f 145/1/137 114/1/106 112/1/104 143/1/135
f 147/1/139 116/1/108 114/1/106 145/1/137
f 149/1/141 118/1/110 116/1/108 147/1/139
f 151/1/143 120/1/112 118/1/110 149/1/141
f 153/1/145 122/1/114 120/1/112 151/1/143
f 155/1/147 124/1/116 122/1/114 153/1/145
f 157/1/149 126/1/118 124/1/116 155/1/147
f 159/1/151 128/1/120 126/1/118 157/1/149
f 161/1/153 130/1/122 128/1/120 159/1/151
f 166/1/158 165/1/157 164/1/156 163/1/155
f 168/1/160 167/1/159 165/1/157 166/1/158
f 170/1/162 169/1/161 167/1/159 168/1/160
f 172/1/164 171/1/163 169/1/161 170/1/162
f 174/1/166 173/1/165 171/1/163 172/1/164
f 176/1/168 175/1/167 173/1/165 174/1/166
f 178/1/170 177/1/169 175/1/167 176/1/168
f 180/1/172 179/1/171 177/1/169 178/1/170
f 182/1/174 181/1/173 179/1/171 180/1/172
f 184/1/176 183/1/175 181/1/173 182/1/174
f 186/1/178 185/1/177 183/1/175 184/1/176
f 188/1/180 187/1/179 185/1/177 186/1/178
f 190/1/182 189/1/181 187/1/179 188/1/180
f 192/1/184 191/1/183 189/1/181 190/1/182
f 194/1/186 193/1/185 191/1/183 192/1/184
f 163/1/155 164/1/156 193/1/185 194/1/186
f 165/1/157 2/1/2 1/1/1 164/1/156
f 164/1/156 1/1/1 16/1/16 193/1/185
f 167/1/159 3/1/3 2/1/2 165/1/157
f 169/1/161 4/1/4 3/1/3 167/1/159
f 171/1/163 5/1/5 4/1/4 169/1/161
f 173/1/165 6/1/6 5/1/5 171/1/163
f 175/1/167 7/1/7 6/1/6 173/1/165
f 177/1/169 8/1/8 7/1/7 175/1/167
f 179/1/171 9/1/9 8/1/8 177/1/169
f 181/1/173 10/1/10 9/1/9 179/1/171
f 183/1/175 11/1/11 10/1/10 181/1/173
f 185/1/177 12/1/12 11/1/11 183/1/175
f 187/1/179 13/1/13 12/1/12 185/1/177
f 189/1/181 14/1/14 13/1/13 187/1/179
f 191/1/183 15/1/15 14/1/14 189/1/181
f 193/1/185 16/1/16 15/1/15 191/1/183
f 243/1/235 200/1/192 197/1/189 244/1/236
f 200/1/192 198/1/190 196/1/188 197/1/189
f 245/1/237 203/1/195 200/1/192 243/1/235
f 203/1/195 201/1/193 198/1/190 200/1/192
f 246/1/238 206/1/198 203/1/195 245/1/237
f 206/1/198 204/1/196 201/1/193 203/1/195
f 247/1/239 209/1/201 206/1/198 246/1/238
f 209/1/201 207/1/199 204/1/196 206/1/198
f 248/1/240 212/1/204 209/1/201 247/1/239
f 212/1/204 210/1/202 207/1/199 209/1/201
f 249/1/241 215/1/207 212/1/204 248/1/240
f 215/1/207 213/1/205 210/1/202 212/1/204
f 250/1/242 218/1/210 215/1/207 249/1/241
f 218/1/210 216/1/208 213/1/205 215/1/207
f 251/1/243 221/1/213 218/1/210 250/1/242
f 221/1/213 219/1/211 216/1/208 218/1/210
f 252/1/244 224/1/216 221/1/213 251/1/243
f 224/1/216 222/1/214 219/1/211 221/1/213
f 253/1/245 227/1/219 224/1/216 252/1/244
f 227/1/219 225/1/217 222/1/214 224/1/216
f 254/1/246 230/1/222 227/1/219 253/1/245
f 230/1/222 228/1/220 225/1/217 227/1/219
f 255/1/247 233/1/225 230/1/222 254/1/246
f 233/1/225 231/1/223 228/1/220 230/1/222
f 256/1/248 236/1/228 233/1/225 255/1/247
f 236/1/228 234/1/226 231/1/223 233/1/225
f 257/1/249 239/1/231 236/1/228 256/1/248
f 239/1/231 237/1/229 234/1/226 236/1/228
f 258/1/250 242/1/234 239/1/231 257/1/249
f 242/1/234 240/1/232 237/1/229 239/1/231
f 244/1/236 197/1/189 242/1/234 258/1/250
f 197/1/189 196/1/188 240/1/232 242/1/234
f 198/1/190 166/1/158 163/1/155 196/1/188
f 101/1/93 199/1/191 195/1/187 100/1/92
f 196/1/188 163/1/155 194/1/186 240/1/232
f 100/1/92 195/1/187 241/1/233 129/1/121
f 103/1/95 202/1/194 199/1/191 101/1/93
f 201/1/193 168/1/160 166/1/158 198/1/190
f 105/1/97 205/1/197 202/1/194 103/1/95
f 204/1/196 170/1/162 168/1/160 201/1/193
f 107/1/99 208/1/200 205/1/197 105/1/97
f 207/1/199 172/1/164 170/1/162 204/1/196
f 109/1/101 211/1/203 208/1/200 107/1/99
f 210/1/202 174/1/166 172/1/164 207/1/199
f 111/1/103 214/1/206 211/1/203 109/1/101
f 213/1/205 176/1/168 174/1/166 210/1/202
f 113/1/105 217/1/209 214/1/206 111/1/103
f 216/1/208 178/1/170 176/1/168 213/1/205
f 115/1/107 220/1/212 217/1/209 113/1/105
f 219/1/211 180/1/172 178/1/170 216/1/208
f 117/1/109 223/1/215 220/1/212 115/1/107
f 222/1/214 182/1/174 180/1/172 219/1/211
f 119/1/111 226/1/218 223/1/215 117/1/109
f 225/1/217 184/1/176 182/1/174 222/1/214
f 121/1/113 229/1/221 226/1/218 119/1/111
f 228/1/220 186/1/178 184/1/176 225/1/217
f 123/1/115 232/1/224 229/1/221 121/1/113
f 231/1/223 188/1/180 186/1/178 228/1/220
f 125/1/117 235/1/227 232/1/224 123/1/115
f 234/1/226 190/1/182 188/1/180 231/1/223
f 127/1/119 238/1/230 235/1/227 125/1/117
f 237/1/229 192/1/184 190/1/182 234/1/226
f 129/1/121 241/1/233 238/1/230 127/1/119
f 240/1/232 194/1/186 192/1/184 237/1/229
f 195/1/187 244/1/236 258/1/250 241/1/233
f 241/1/233 258/1/250 257/1/249 238/1/230
f 238/1/230 257/1/249 256/1/248 235/1/227
f 235/1/227 256/1/248 255/1/247 232/1/224
f 232/1/224 255/1/247 254/1/246 229/1/221
f 229/1/221 254/1/246 253/1/245 226/1/218
f 226/1/218 253/1/245 252/1/244 223/1/215
f 223/1/215 252/1/244 251/1/243 220/1/212
f 220/1/212 251/1/243 250/1/242 217/1/209
f 217/1/209 250/1/242 249/1/241 214/1/206
f 214/1/206 249/1/241 248/1/240 211/1/203
f 211/1/203 248/1/240 247/1/239 208/1/200
f 208/1/200 247/1/239 246/1/238 205/1/197
f 205/1/197 246/1/238 245/1/237 202/1/194
f 202/1/194 245/1/237 243/1/235 199/1/191
f 199/1/191 243/1/235 244/1/236 195/1/187
f 262/1/254 261/1/253 260/1/252 259/1/251
f 264/1/256 263/1/255 261/1/253 262/1/254
f 266/1/258 265/1/257 263/1/255 264/1/256
f 268/1/260 267/1/259 265/1/257 266/1/258
f 270/1/262 269/1/261 267/1/259 268/1/260
f 272/1/264 271/1/263 269/1/261 270/1/262
f 274/1/266 273/1/265 271/1/263 272/1/264
f 276/1/268 275/1/267 273/1/265 274/1/266
f 278/1/270 277/1/269 275/1/267 276/1/268
f 280/1/272 279/1/271 277/1/269 278/1/270
f 282/1/274 281/1/273 279/1/271 280/1/272
f 284/1/276 283/1/275 281/1/273 282/1/274
f 286/1/278 285/1/277 283/1/275 284/1/276
f 288/1/280 287/1/279 285/1/277 286/1/278
f 290/1/282 289/1/281 287/1/279 288/1/280
f 259/1/251 260/1/252 289/1/281 290/1/282
f 261/1/253 134/1/126 131/1/123 260/1/252
f 90/1/90 262/1/254 259/1/251 93/1/90
f 260/1/252 131/1/123 162/1/154 289/1/281
f 93/1/90 259/1/251 290/1/282 96/1/90
f 266/1/258 264/1/256 262/1/254 90/1/90
f 263/1/255 136/1/128 134/1/126 261/1/253
f 265/1/257 138/1/130 136/1/128 263/1/255
f 268/1/260 266/1/258 90/1/90 91/1/90
f 267/1/259 140/1/132 138/1/130 265/1/257
f 270/1/262 268/1/260 91/1/90 92/1/90
f 269/1/261 142/1/134 140/1/132 267/1/259
f 272/1/264 270/1/262 92/1/90 274/1/266
f 271/1/263 144/1/136 142/1/134 269/1/261
f 273/1/265 146/1/138 144/1/136 271/1/263
f 274/1/266 92/1/90 95/1/90 276/1/268
f 275/1/267 148/1/140 146/1/138 273/1/265
f 276/1/268 95/1/90 98/1/90 278/1/270
f 277/1/269 150/1/142 148/1/140 275/1/267
f 278/1/270 98/1/90 282/1/274 280/1/272
f 279/1/271 152/1/144 150/1/142 277/1/269
f 281/1/273 154/1/146 152/1/144 279/1/271
f 98/1/90 97/1/90 284/1/276 282/1/274
f 283/1/275 156/1/148 154/1/146 281/1/273
f 97/1/90 96/1/90 286/1/278 284/1/276
f 285/1/277 158/1/150 156/1/148 283/1/275
f 96/1/90 290/1/282 288/1/280 286/1/278
f 287/1/279 160/1/152 158/1/150 285/1/277
f 289/1/281 162/1/154 160/1/152 287/1/279
